<svg xmlns="http://www.w3.org/2000/svg" viewBox="0 0 372.483 372.483" xmlns:v="https://vecta.io/nano"><path d="M372.482 263.045a107.23 107.23 0 0 0-18.877-60.863c-8.883-12.962-20.322-23.726-33.578-31.725 15.607-14.78 25.372-35.67 25.372-58.811 0-44.684-36.354-81.038-81.037-81.038-26.496 0-51.316 13.104-66.392 34.615-3.831-.558-7.745-.859-11.729-.859s-7.897.302-11.728.859c-15.077-21.511-39.897-34.615-66.392-34.615-44.684 0-81.038 36.354-81.038 81.038 0 23.141 9.765 44.031 25.373 58.811-13.257 7.998-24.696 18.763-33.578 31.724C6.528 220.203 0 241.249 0 263.045v45.075h78.121v33.755h216.242V308.12h78.12v-45.075h-.001zM264.362 50.609c33.656 0 61.037 27.381 61.037 61.038s-27.381 61.038-61.037 61.038a60.74 60.74 0 0 1-1.81-.027c.046-.128.084-.259.129-.387a80.237 80.237 0 0 0 2.608-9.087l.152-.659a80.5 80.5 0 0 0 .495-2.526l.215-1.2a81.406 81.406 0 0 0 .547-3.862l.219-2.022c.064-.691.112-1.383.158-2.076l.106-1.639c.055-1.177.086-2.356.09-3.536 0-.087.007-.172.007-.26 0-.047-.004-.094-.004-.141a82.586 82.586 0 0 0-.091-3.597l-.057-1.039a83.979 83.979 0 0 0-.231-3.03l-.063-.683c-3.022-29.209-21.475-54.21-48.095-65.774 11.471-12.887 28.063-20.531 45.625-20.531zm-99.24 37.522l.587-.208a58.805 58.805 0 0 1 4.273-1.347 60.923 60.923 0 0 1 16.257-2.216 61.173 61.173 0 0 1 17.3 2.516 61.303 61.303 0 0 1 3.247 1.055l.566.2c20.413 7.549 35.718 25.716 39.182 47.763l.079.53c.111.747.204 1.5.287 2.255l.089.834a64.5 64.5 0 0 1 .159 2.079l.057.894a61.15 61.15 0 0 1 .068 2.682c0 .078.005.154.005.232l-.002.109c-.002.87-.028 1.734-.066 2.595l-.04.812a61.36 61.36 0 0 1-.189 2.482c-.031.318-.073.635-.109.952a63.987 63.987 0 0 1-.203 1.591l-.182 1.232a60.171 60.171 0 0 1-.907 4.486 61.492 61.492 0 0 1-.637 2.42l-.272.956c-.139.46-.289.916-.438 1.372l-.37 1.09-.438 1.231a61.24 61.24 0 0 1-.814 2.061l-.391.908a59.694 59.694 0 0 1-.765 1.689l-.093.198-.286.595a58.174 58.174 0 0 1-.92 1.793l-.368.692a61.358 61.358 0 0 1-1.098 1.909l-.439.73c-.4.649-.811 1.291-1.234 1.923-.263.393-.538.778-.81 1.165l-.698.98a62.132 62.132 0 0 1-1.592 2.074l-1.021 1.249-.655.756-1.089 1.23c-.22.239-.448.469-.672.705a62.432 62.432 0 0 1-1.846 1.865l-1.126 1.074-.804.718a60.414 60.414 0 0 1-2.017 1.718c-.543.442-1.093.875-1.652 1.299l-.455.346c-10.16 7.553-22.736 12.03-36.34 12.03a60.71 60.71 0 0 1-36.343-12.033l-.446-.34a59.826 59.826 0 0 1-1.659-1.305l-.684-.564a63.729 63.729 0 0 1-1.333-1.155l-.8-.714c-.383-.352-.755-.715-1.129-1.076a61.645 61.645 0 0 1-1.852-1.871l-.664-.696c-.371-.404-.73-.819-1.09-1.232l-.654-.755a63.823 63.823 0 0 1-1.676-2.081l-.937-1.241-.699-.983-.808-1.162a60.8 60.8 0 0 1-1.239-1.93l-.433-.721a60.982 60.982 0 0 1-1.089-1.892l-.378-.71a62.075 62.075 0 0 1-.922-1.798l-.312-.648-.046-.099a60.047 60.047 0 0 1-.801-1.769l-.366-.849a61.796 61.796 0 0 1-.832-2.106c-.143-.382-.275-.768-.41-1.153a59.594 59.594 0 0 1-.404-1.192l-.415-1.298a59.234 59.234 0 0 1-.558-1.959c-.123-.461-.234-.926-.347-1.39a58.13 58.13 0 0 1-.254-1.097l-.291-1.351a59.653 59.653 0 0 1-.38-2.124l-.171-1.153a60.374 60.374 0 0 1-.219-1.715l-.098-.849a60.987 60.987 0 0 1-.194-2.544l-.036-.735a60.986 60.986 0 0 1-.07-2.745c0-.986.028-1.965.075-2.94l.05-.792c.044-.732.097-1.462.167-2.188l.08-.757c.086-.786.183-1.568.299-2.345l.068-.454c3.453-22.06 18.761-40.239 39.182-47.793zM47.083 111.647c0-33.656 27.381-61.038 61.038-61.038 17.563 0 34.154 7.645 45.625 20.529-26.629 11.568-45.086 36.581-48.099 65.802l-.055.596a81.183 81.183 0 0 0-.239 3.137l-.053.96a82.727 82.727 0 0 0-.096 3.77c0 1.276.037 2.549.097 3.821.024.512.066 1.019.099 1.528l.167 2.194a77.61 77.61 0 0 0 .21 1.939 78.833 78.833 0 0 0 .547 3.878l.232 1.297.477 2.437.184.795a80.085 80.085 0 0 0 2.526 8.81l.185.556-1.809.027c-33.655-.001-61.036-27.382-61.036-61.038zm47.805 127.501l-.646 1.049-1.348 2.225-.719 1.257a106.539 106.539 0 0 0-1.865 3.416l-1.067 2.101-.649 1.327-1.032 2.236-.548 1.22c-.39.896-.762 1.799-1.127 2.705l-.325.792a106.116 106.116 0 0 0-1.326 3.553l-.277.822-.915 2.764-.384 1.278-.683 2.359-.375 1.413a98.632 98.632 0 0 0-.568 2.281 107.844 107.844 0 0 0-.822 3.776l-.276 1.403-.435 2.547-.195 1.198a107.15 107.15 0 0 0-.497 3.762l-.004.045c-.129 1.145-.24 2.292-.333 3.443H20v-25.075c0-34.258 19.694-65.013 50.548-79.631a80.517 80.517 0 0 0 37.572 9.271c3.92 0 7.852-.29 11.754-.864a82.73 82.73 0 0 0 1.866 2.567c.216.283.44.559.66.839a80.733 80.733 0 0 0 1.935 2.39l.825.952a80.407 80.407 0 0 0 2.92 3.181 84.246 84.246 0 0 0 1.793 1.794c.228.221.443.455.673.674l-2.583 1.612-.413.273-2.533 1.697-.865.604-2.213 1.602-.694.514a110.08 110.08 0 0 0-2.756 2.151l-.59.487a105.209 105.209 0 0 0-2.961 2.515 110.57 110.57 0 0 0-2.096 1.896l-.543.5a106.62 106.62 0 0 0-2.506 2.438l-.635.65-1.868 1.952-.73.789-2.045 2.299-.319.363c-.765.893-1.513 1.803-2.251 2.722l-.61.775-1.64 2.136-.622.834a111.81 111.81 0 0 0-2.074 2.913 107.357 107.357 0 0 0-2.111 3.208zm3.233 82.728v-25.075a89.33 89.33 0 0 1 .062-3.319c.013-.363.042-.723.06-1.085l.124-2.206c.033-.445.083-.886.123-1.33l.182-1.935c.053-.47.122-.937.182-1.406l.241-1.831c.073-.484.161-.964.241-1.446l.299-1.757c.093-.493.201-.981.302-1.472l.354-1.696c.112-.496.24-.987.36-1.481l.409-1.65.418-1.482.462-1.608.476-1.481.514-1.566.531-1.465.569-1.54.583-1.446.621-1.508.64-1.433.67-1.47.694-1.415.719-1.436.747-1.393.767-1.402.797-1.368.817-1.371.848-1.341.864-1.336.898-1.314.909-1.3.948-1.285.954-1.263.994-1.252 1.001-1.229a92.08 92.08 0 0 1 1.037-1.213l1.05-1.198 1.08-1.176 1.093-1.158 1.125-1.139 1.14-1.123 1.163-1.096a94.02 94.02 0 0 1 1.185-1.085l1.205-1.056 1.228-1.044a87.18 87.18 0 0 1 1.244-1.014l1.273-1.004a102.037 102.037 0 0 1 2.598-1.931 87.936 87.936 0 0 1 4.022-2.714 85.066 85.066 0 0 1 2.787-1.701 89.436 89.436 0 0 1 4.357-2.391l1.436-.723 1.145-.547a80.516 80.516 0 0 0 37.572 9.27 80.513 80.513 0 0 0 37.572-9.27l1.136.543a98.535 98.535 0 0 1 2.933 1.507 89.056 89.056 0 0 1 2.858 1.605 84.334 84.334 0 0 1 2.786 1.701 83.62 83.62 0 0 1 2.711 1.794 82.258 82.258 0 0 1 2.632 1.884 82.487 82.487 0 0 1 2.554 1.972l1.252 1.02 1.221 1.038a81.497 81.497 0 0 1 2.388 2.139l1.174 1.107 1.129 1.112 1.133 1.147 1.086 1.15 1.089 1.186 1.041 1.187 1.045 1.223.995 1.221 1 1.259.949 1.257.952 1.291.905 1.294.902 1.32.858 1.327.854 1.351.81 1.359.803 1.378.764 1.396.749 1.398.718 1.434.695 1.417.668 1.467.642 1.438c.213.495.412.996.616 1.496l.589 1.46c.196.507.379 1.02.566 1.532l.532 1.469c.18.521.346 1.048.516 1.573l.474 1.475c.163.533.31 1.072.463 1.609l.418 1.481c.145.547.274 1.099.409 1.65l.36 1.481c.127.562.237 1.129.354 1.694l.302 1.474c.109.578.199 1.161.297 1.743l.244 1.461c.09.603.162 1.211.24 1.817l.184 1.418c.072.642.124 1.289.182 1.935l.123 1.33c.055.733.088 1.471.124 2.208l.06 1.083a89.33 89.33 0 0 1 .062 3.319v25.076H98.121zm195.894-33.756a108.426 108.426 0 0 0-.836-7.263l-.186-1.139-.445-2.606-.269-1.365-.496-2.366a112.45 112.45 0 0 0-1.273-5.121l-.691-2.385-.377-1.254-.928-2.805-.264-.783a106.772 106.772 0 0 0-1.33-3.564l-.311-.756-1.142-2.74-.54-1.202-1.042-2.257-.64-1.308a108.105 108.105 0 0 0-1.774-3.435l-1.166-2.097-.716-1.251c-.44-.751-.895-1.494-1.355-2.236l-.64-1.038a108.775 108.775 0 0 0-2.113-3.209 112.589 112.589 0 0 0-2.075-2.914l-.618-.829-1.647-2.145-.604-.766c-.739-.922-1.49-1.834-2.257-2.729l-.303-.345a108.121 108.121 0 0 0-4.663-5.062l-.625-.639a109.229 109.229 0 0 0-2.513-2.444l-.531-.489a111.41 111.41 0 0 0-2.107-1.906l-.814-.71a108.283 108.283 0 0 0-2.146-1.804l-.588-.486a107.65 107.65 0 0 0-2.754-2.15l-.701-.518a108.153 108.153 0 0 0-5.584-3.884l-.441-.291-2.578-1.608c.224-.213.434-.44.655-.656.62-.6 1.229-1.21 1.829-1.83a75.455 75.455 0 0 0 2.919-3.182l.8-.924a80.581 80.581 0 0 0 1.964-2.426l.631-.803a83.427 83.427 0 0 0 1.875-2.577 80.94 80.94 0 0 0 11.754.863 80.502 80.502 0 0 0 37.572-9.271c30.855 14.618 50.548 45.373 50.548 79.631v25.074h-58.464z"/></svg>